<svg width="1000" height="1000" viewBox="0 0 1000 1000" xmlns="http://www.w3.org/2000/svg"><defs/><path d="M 0 0 L 1000 0 L 1000 1000 L 0 1000 Z"/><path id="text" fill="#ffffff" transform="matrix(1.931867184131091 0 0 1.931867184131091 -8.15006468305304 123.69987063389392)" d="M 104.17633928571 162.20758928571 C 107.80133928571 162.20758928571 111.11383928571 162.70758928571 114.11383928571 163.70758928571 C 117.11383928571 164.70758928571 119.64508928571 165.86383928571 121.70758928571 167.17633928571 L 121.70758928571 180.02008928571 C 119.45758928571 178.64508928571 117.05133928571 177.36383928571 114.48883928571 176.17633928571 C 111.92633928571 174.98883928571 109.02008928571 174.39508928571 105.77008928571 174.39508928571 C 104.14508928571 174.39508928571 102.53571428571 174.64508928571 100.94196428571 175.14508928571 C 99.34821428571 175.64508928571 98.03571428571 176.39508928571 97.00446428571 177.39508928571 C 95.97321428571 178.39508928571 95.45758928571 179.67633928571 95.45758928571 181.23883928571 C 95.45758928571 183.30133928571 96.36383928571 184.86383928571 98.17633928571 185.92633928571 C 99.98883928571 186.98883928571 102.20758928571 188.05133928571 104.83258928571 189.11383928571 L 112.52008928571 192.30133928571 C 116.89508928571 194.17633928571 120.11383928571 196.45758928571 122.17633928571 199.14508928571 C 124.23883928571 201.83258928571 125.27008928571 204.89508928571 125.27008928571 208.33258928571 C 125.27008928571 212.08258928571 124.19196428571 215.37946428571 122.03571428571 218.22321428571 C 119.87946428571 221.06696428571 117.00446428571 223.30133928571 113.41071428571 224.92633928571 C 109.81696428571 226.55133928571 105.83258928571 227.36383928571 101.45758928571 227.36383928571 C 97.77008928571 227.36383928571 94.23883928571 226.73883928571 90.86383928571 225.48883928571 C 87.48883928571 224.23883928571 84.55133928571 222.70758928571 82.05133928571 220.89508928571 L 82.05133928571 208.05133928571 C 84.80133928571 210.05133928571 87.83258928571 211.73883928571 91.14508928571 213.11383928571 C 94.45758928571 214.48883928571 97.98883928571 215.17633928571 101.73883928571 215.17633928571 C 104.36383928571 215.17633928571 106.61383928571 214.66071428571 108.48883928571 213.62946428571 C 110.36383928571 212.59821428571 111.30133928571 211.05133928571 111.30133928571 208.98883928571 C 111.30133928571 207.36383928571 110.53571428571 206.03571428571 109.00446428571 205.00446428571 C 107.47321428571 203.97321428571 105.80133928571 203.11383928571 103.98883928571 202.42633928571 L 94.33258928571 198.67633928571 C 89.45758928571 196.80133928571 86.16071428571 194.34821428571 84.44196428571 191.31696428571 C 82.72321428571 188.28571428571 81.86383928571 184.92633928571 81.86383928571 181.23883928571 C 81.86383928571 177.42633928571 82.91071428571 174.09821428571 85.00446428571 171.25446428571 C 87.09821428571 168.41071428571 89.83258928571 166.19196428571 93.20758928571 164.59821428571 C 96.58258928571 163.00446428571 100.23883928571 162.20758928571 104.17633928571 162.20758928571 Z M 165.67633928571 162.95758928571 L 194.92633928571 226.23883928571 L 179.64508928571 226.23883928571 L 174.86383928571 214.52008928571 L 150.02008928571 214.52008928571 L 145.23883928571 226.23883928571 L 129.95758928571 226.23883928571 L 159.20758928571 162.95758928571 L 165.67633928571 162.95758928571 Z M 162.48883928571 184.23883928571 L 154.61383928571 203.45758928571 L 170.36383928571 203.45758928571 L 162.48883928571 184.23883928571 Z M 222.39508928571 162.20758928571 C 226.02008928571 162.20758928571 229.33258928571 162.70758928571 232.33258928571 163.70758928571 C 235.33258928571 164.70758928571 237.86383928571 165.86383928571 239.92633928571 167.17633928571 L 239.92633928571 180.02008928571 C 237.67633928571 178.64508928571 235.27008928571 177.36383928571 232.70758928571 176.17633928571 C 230.14508928571 174.98883928571 227.23883928571 174.39508928571 223.98883928571 174.39508928571 C 222.36383928571 174.39508928571 220.75446428571 174.64508928571 219.16071428571 175.14508928571 C 217.56696428571 175.64508928571 216.25446428571 176.39508928571 215.22321428571 177.39508928571 C 214.19196428571 178.39508928571 213.67633928571 179.67633928571 213.67633928571 181.23883928571 C 213.67633928571 183.30133928571 214.58258928571 184.86383928571 216.39508928571 185.92633928571 C 218.20758928571 186.98883928571 220.42633928571 188.05133928571 223.05133928571 189.11383928571 L 230.73883928571 192.30133928571 C 235.11383928571 194.17633928571 238.33258928571 196.45758928571 240.39508928571 199.14508928571 C 242.45758928571 201.83258928571 243.48883928571 204.89508928571 243.48883928571 208.33258928571 C 243.48883928571 212.08258928571 242.41071428571 215.37946428571 240.25446428571 218.22321428571 C 238.09821428571 221.06696428571 235.22321428571 223.30133928571 231.62946428571 224.92633928571 C 228.03571428571 226.55133928571 224.05133928571 227.36383928571 219.67633928571 227.36383928571 C 215.98883928571 227.36383928571 212.45758928571 226.73883928571 209.08258928571 225.48883928571 C 205.70758928571 224.23883928571 202.77008928571 222.70758928571 200.27008928571 220.89508928571 L 200.27008928571 208.05133928571 C 203.02008928571 210.05133928571 206.05133928571 211.73883928571 209.36383928571 213.11383928571 C 212.67633928571 214.48883928571 216.20758928571 215.17633928571 219.95758928571 215.17633928571 C 222.58258928571 215.17633928571 224.83258928571 214.66071428571 226.70758928571 213.62946428571 C 228.58258928571 212.59821428571 229.52008928571 211.05133928571 229.52008928571 208.98883928571 C 229.52008928571 207.36383928571 228.75446428571 206.03571428571 227.22321428571 205.00446428571 C 225.69196428571 203.97321428571 224.02008928571 203.11383928571 222.20758928571 202.42633928571 L 212.55133928571 198.67633928571 C 207.67633928571 196.80133928571 204.37946428571 194.34821428571 202.66071428571 191.31696428571 C 200.94196428571 188.28571428571 200.08258928571 184.92633928571 200.08258928571 181.23883928571 C 200.08258928571 177.42633928571 201.12946428571 174.09821428571 203.22321428571 171.25446428571 C 205.31696428571 168.41071428571 208.05133928571 166.19196428571 211.42633928571 164.59821428571 C 214.80133928571 163.00446428571 218.45758928571 162.20758928571 222.39508928571 162.20758928571 Z M 336.20758928571 163.42633928571 L 315.02008928571 226.23883928571 L 306.02008928571 226.23883928571 L 292.05133928571 185.83258928571 L 278.08258928571 226.23883928571 L 269.08258928571 226.23883928571 L 248.17633928571 163.42633928571 L 262.98883928571 163.42633928571 L 274.61383928571 203.08258928571 L 287.83258928571 163.42633928571 L 296.55133928571 163.42633928571 L 309.58258928571 203.08258928571 L 321.39508928571 163.42633928571 L 336.20758928571 163.42633928571 Z M 365.36383928571 162.95758928571 L 394.61383928571 226.23883928571 L 379.33258928571 226.23883928571 L 374.55133928571 214.52008928571 L 349.70758928571 214.52008928571 L 344.92633928571 226.23883928571 L 329.64508928571 226.23883928571 L 358.89508928571 162.95758928571 L 365.36383928571 162.95758928571 Z M 362.17633928571 184.23883928571 L 354.30133928571 203.45758928571 L 370.05133928571 203.45758928571 L 362.17633928571 184.23883928571 Z M 444.20758928571 163.42633928571 L 444.20758928571 175.14508928571 L 424.14508928571 175.14508928571 L 424.14508928571 225.95758928571 L 411.20758928571 225.95758928571 L 411.20758928571 175.14508928571 L 391.14508928571 175.14508928571 L 391.14508928571 163.42633928571 L 444.20758928571 163.42633928571 Z"/></svg>